<?xml version="1.0" encoding="UTF-8"?>
<svg id="Layer_2" data-name="Layer 2" xmlns="http://www.w3.org/2000/svg" viewBox="0 0 52.43 42.64">
  <defs>
    <style>
      .cls-1 {
        fill: #d8a125;
      }

      .cls-1, .cls-2, .cls-3, .cls-4, .cls-5 {
        stroke: #332609;
        stroke-width: .25px;
      }

      .cls-1, .cls-3, .cls-5 {
        stroke-linecap: round;
        stroke-linejoin: round;
      }

      .cls-2 {
        fill: #efb229;
      }

      .cls-2, .cls-4 {
        stroke-miterlimit: 10;
      }

      .cls-3 {
        fill: #cc9823;
      }

      .cls-4 {
        fill: #f9bf29;
      }

      .cls-5 {
        fill: #f2b42a;
      }
    </style>
  </defs>
  <g id="Layer_1-2" data-name="Layer 1">
    <g>
      <path class="cls-2" d="m52.18,10.47c.09.07.14.19.12.3-.2,1.89-1.87,17.76-2.08,18.23-1.61,3.62-5.09,3.72-5.62,3.71h0s-.06,0-.06,0H7.51s-.03,0-.04,0c-4.96-.55-5.41-4.33-5.44-4.65,0-.02,0-.03,0-.05C.71,23.07.2,12.18.13,10.45c0-.14.07-.27.2-.33,2.47-1.01,6.71-.69,6.71-.69,0,0,.05,0,.13,0,.47.02,2.09.26,2.29,2.47.19,2.21.43,5.05.49,5.81,0,.12-.05.24-.15.31l-2.14,1.46c-.1.07-.16.19-.15.31l.57,6.23c.02.17.16.31.34.31h35.09c.17,0,.32-.13.34-.3l.71-6.26c.01-.11-.03-.21-.11-.29l-2.33-2.15c-.07-.06-.1-.14-.11-.23-.04-.84-.23-5.27.23-6.49.49-1.31,1.95-1.33,2.04-1.33h0s5.59-.58,7.9,1.19Z"/>
      <path class="cls-1" d="m44.54,19.97l-.69,6.06c-.02.17-.16.3-.34.3H8.42c-.18,0-.32-.13-.34-.31l-.55-6.06c-.02-.2.14-.37.34-.37h36.34c.2,0,.36.18.34.38Z"/>
      <path class="cls-5" d="m44.58,19.59H7.49l2.47-1.68s13.36-4.49,32.06-.67l2.56,2.36Z"/>
      <path class="cls-4" d="m44.27,8.96c0,.17-.12.32-.28.35-.47.07-1.38.33-1.74,1.3-.42,1.11-.3,4.91-.24,6.2,0,.22-.19.39-.41.34-16.6-3.29-28.91-.06-31.24.63-.21.06-.41-.08-.43-.3-.08-.99-.29-3.55-.47-5.58-.19-2.2-1.81-2.44-2.29-2.47h.02s.18-8.98.18-8.98c0-.19.16-.34.35-.33,2.59.1,19.42.67,35.92,0,.19,0,.35.14.35.33l.28,8.51Z"/>
      <path class="cls-2" d="m44.15,42.52h-1.43c-.14,0-.27-.09-.32-.22l-2.95-7.98h3.25l1.78,7.78c.05.21-.11.41-.33.41Z"/>
      <path class="cls-3" d="m44.61,32.72l-.27,1.33c-.03.16-.17.27-.33.27H7.92c-.18,0-.33-.14-.34-.32l-.06-.93c-.01-.2.14-.36.34-.36h36.69s.02,0,.06,0h0Z"/>
      <path class="cls-2" d="m12.73,34.32l-3.39,7.99c-.05.13-.18.21-.31.21h-1.41c-.22,0-.38-.2-.33-.41l1.78-7.78h3.67Z"/>
    </g>
  </g>
</svg>