<?xml version="1.0" encoding="UTF-8"?>
<svg id="Layer_2" data-name="Layer 2" xmlns="http://www.w3.org/2000/svg" viewBox="0 0 500 500">
  <defs>
    <style>
      .cls-1 {
        fill: #d8d8d8;
      }

      .cls-1, .cls-2 {
        stroke-width: 0px;
      }

      .cls-2 {
        fill: #eff2f1;
      }
    </style>
  </defs>
  <g id="Layer_1-2" data-name="Layer 1">
    <g>
      <rect class="cls-2" width="500" height="500"/>
      <path class="cls-1" d="m87.14,117.69c0-7.59,6.1-13.69,13.69-13.69h25.95c12.55,0,23.67,7.3,28.86,18.25h234.4c15,0,25.95,14.26,22.01,28.74l-23.38,86.86c-4.85,17.91-21.1,30.4-39.64,30.4h-164.54l3.08,16.25c1.25,6.44,6.9,11.12,13.46,11.12h164.42c7.59,0,13.69,6.1,13.69,13.69s-6.1,13.69-13.69,13.69h-164.42c-19.73,0-36.67-14.03-40.32-33.36l-29.43-154.55c-.4-2.17-2.28-3.71-4.51-3.71h-25.95c-7.59,0-13.69-6.1-13.69-13.69Zm73,250.94c0-15.12,12.26-27.38,27.38-27.38s27.38,12.26,27.38,27.38-12.26,27.38-27.38,27.38-27.38-12.26-27.38-27.38h0Zm191.63-27.38c15.12,0,27.38,12.26,27.38,27.38s-12.26,27.38-27.38,27.38h0c-15.12,0-27.38-12.26-27.38-27.38s12.26-27.38,27.38-27.38Z"/>
    </g>
  </g>
</svg>