<?xml version="1.0" encoding="utf-8"?>
<!-- Generator: Adobe Illustrator 28.0.0, SVG Export Plug-In . SVG Version: 6.00 Build 0)  -->
<svg version="1.1" id="Layer_1" xmlns="http://www.w3.org/2000/svg" xmlns:xlink="http://www.w3.org/1999/xlink" x="0px" y="0px"
	 viewBox="0 0 300 300" style="enable-background:new 0 0 300 300;" xml:space="preserve">
<style type="text/css">
	.st0{fill:#144DEF;}
</style>
<g>
	<path class="st0" d="M150,5c6.9,0,12.4,5.6,12.4,12.4s-5.6,12.4-12.4,12.4C83.6,29.9,29.9,83.6,29.9,150
		c0,66.4,53.8,120.1,120.1,120.1c6.9,0,12.4,5.6,12.4,12.4S156.9,295,150,295C69.9,295,5,230.1,5,150C5,69.9,69.9,5,150,5z"/>
	<path class="st0" d="M224.1,109.1c-4.9-4.9-4.9-12.7,0-17.6c4.9-4.9,12.7-4.9,17.6,0l49.7,49.7c4.9,4.9,4.9,12.7,0,17.6l-49.7,49.7
		c-4.9,4.9-12.7,4.9-17.6,0c-4.9-4.9-4.9-12.7,0-17.6l28.5-28.5H116.9c-6.9,0-12.4-5.6-12.4-12.4s5.6-12.4,12.4-12.4h135.7
		L224.1,109.1z"/>
</g>
</svg>
