<?xml version="1.0" encoding="UTF-8"?>
<svg id="Layer_2" data-name="Layer 2" xmlns="http://www.w3.org/2000/svg" viewBox="0 0 45.55 42.92">
  <defs>
    <style>
      .cls-1 {
        fill: #e5e3da;
      }

      .cls-1, .cls-2, .cls-3, .cls-4 {
        stroke: #333331;
        stroke-linecap: round;
        stroke-linejoin: round;
        stroke-width: .25px;
      }

      .cls-2 {
        fill: none;
      }

      .cls-3 {
        fill: #f2f0e9;
      }

      .cls-4 {
        fill: #f2efe3;
      }
    </style>
  </defs>
  <g id="Layer_1-2" data-name="Layer 1">
    <g>
      <g>
        <path class="cls-3" d="m44.43.12v9.99c0,.51-.42.93-.93.93h-25.23c-.51,0-.93-.42-.93-.93V1.06c0-.51.42-.93.93-.93h26.16Z"/>
        <rect class="cls-1" x="1.12" y="11.05" width="27.55" height="10.83" rx=".93" ry=".93"/>
        <rect class="cls-3" x="17.53" y="21.88" width="26.9" height="10.64" rx=".93" ry=".93"/>
        <path class="cls-1" d="m28.68,33.46v8.41c0,.51-.42.93-.93.93H1.12v-9.34c0-.51.42-.93.93-.93h25.69c.51,0,.93.42.93.93Z"/>
        <line class="cls-2" x1="1.12" y1="42.8" x2="1.12" y2=".12"/>
        <line class="cls-2" x1="44.43" y1="42.8" x2="44.43" y2=".12"/>
      </g>
      <rect class="cls-4" x="44.43" y=".12" width="1" height="42.67"/>
      <rect class="cls-4" x=".12" y=".12" width="1" height="42.67"/>
    </g>
  </g>
</svg>